<svg xmlns="http://www.w3.org/2000/svg" height="24" viewBox="0 -960 960 960" width="24"><path d="M255.385-415.385h88.154l210.769-210.769q5.154-5.923 7.731-12.423 2.576-6.5 2.576-12.884 0-6.385-2.692-12.654-2.692-6.27-7.615-12.193l-36.769-38q-5.154-5.154-11.924-7.731-6.769-2.576-13.384-2.576-6.385 0-12.885 2.576-6.5 2.577-12.423 7.731L255.385-503.539v88.154Zm273.846-236.076-37-37.77 37 37.77ZM290.769-450.769v-38l137.923-137.923 18.462 19.538 18.769 19.231-137.154 137.154h-38Zm156.385-156.385 18.769 19.231-37.231-38.769 18.462 19.538Zm25.23 191.769h232.231v-40h-192.23l-40.001 40ZM120-156.923v-618.462Q120-803 138.5-821.5 157-840 184.615-840h590.77Q803-840 821.5-821.5 840-803 840-775.385v430.77Q840-317 821.5-298.5 803-280 775.385-280H243.077L120-156.923ZM226-320h549.385q9.23 0 16.923-7.692Q800-335.385 800-344.615v-430.77q0-9.23-7.692-16.923Q784.615-800 775.385-800h-590.77q-9.23 0-16.923 7.692Q160-784.615 160-775.385v521.154L226-320Zm-66 0v-480 480Z"/></svg>