<svg xmlns="http://www.w3.org/2000/svg" height="24" viewBox="0 -960 960 960" width="24"><path d="M224.615-120q-26.846 0-45.731-18.884Q160-157.769 160-184.615v-430.77q0-26.846 18.884-45.731Q197.769-680 224.615-680H320q0-66.846 46.577-113.423T480-840q66.846 0 113.423 46.577T640-680h95.385q26.846 0 45.731 18.884Q800-642.231 800-615.385v430.77q0 26.846-18.884 45.731Q762.231-120 735.385-120h-510.77Zm0-40h510.77q9.23 0 16.923-7.692Q760-175.385 760-184.615v-430.77q0-9.23-7.692-16.923Q744.615-640 735.385-640h-510.77q-9.23 0-16.923 7.692Q200-624.615 200-615.385v430.77q0 9.23 7.692 16.923Q215.385-160 224.615-160ZM480-440q66.846 0 113.423-46.577T640-600h-40q0 50-35 85t-85 35q-50 0-85-35t-35-85h-40q0 66.846 46.577 113.423T480-440ZM360-680h240q0-50-35-85t-85-35q-50 0-85 35t-35 85ZM200-160v-480 480Z"/></svg>